<svg version="1.2" xmlns="http://www.w3.org/2000/svg" viewBox="0 0 524 524" width="524" height="524"><defs><clipPath clipPathUnits="userSpaceOnUse" id="cp1"><path d="m-1282-8985h1920v10253h-1920z"/></clipPath><filter x="-50%" y="-50%" width="200%" height="200%" id="f1" ><feDropShadow dx="14.849242404917497" dy="14.849242404917499" stdDeviation="21.666666666666668" flood-color="#000000" flood-opacity=".2"/></filter></defs><style>.a{filter:url(#f1);fill:#ea5a27}.b{fill:#fff}.c{fill:#1a8e38}</style><g clip-path="url(#cp1)"><path class="a" d="m247.4 456c-115.3 0-208.5-93.2-208.5-208.6 0-115.3 93.2-208.5 208.5-208.5 115.4 0 208.6 93.2 208.6 208.5 0 115.4-93.2 208.6-208.6 208.6z"/><path class="b" d="m264.4 432.4l-15-7.8-14.9 7.9 2.7-16.7-12.2-11.7 16.8-2.6 7.4-15.2 7.6 15.2 16.7 2.3-12 11.9z"/><path class="b" d="m248.6 367.4c-67.8 0-122.6-54.8-122.6-122.6 0-67.8 54.8-122.6 122.6-122.6 67.8 0 122.7 54.8 122.7 122.6 0 67.8-54.9 122.6-122.7 122.6z"/><path fill-rule="evenodd" class="b" d="m112.4 294.3l-8.7 8.5 6.5 14.4 12.2-1.1 2.9 6.5-44.2 3.2-3.1-6.7 31.4-31.4zm-13.3 12.6l-8.6 8.2q-0.9 0.9-2.8 2.6-1.9 1.7-2.8 2.4 3.5-0.7 7.8-1.1l11.4-1.1z"/><path class="b" d="m62.4 256l26.6-3.9q4.5-0.7 8.2 0.8 3.7 1.4 6.1 4.8 2.3 3.4 3.1 8.6 1.1 7.6-2.3 12.4-3.4 4.9-10.4 5.9l-26.4 3.9-1-6.7 25.9-3.9q5.1-0.7 7.1-3.4 2.1-2.7 1.4-7.6-1.4-9.5-11.4-8l-25.9 3.8z"/><path class="b" d="m95.6 213.9q5.4 0.7 8.1 5 2.7 4.3 1.9 11.3-0.8 7-3.5 11.2l-6.4-0.7q1.7-2.7 2.8-5.8 1.1-3.1 1.4-5.8 0.5-4-0.8-6.1-1.3-2-3.9-2.3-2.3-0.3-4.1 1.3-1.8 1.5-4.6 6.7-2.9 5.4-6.1 7.4-3.2 1.9-7.3 1.5-5.2-0.6-7.7-4.6-2.5-4-1.8-10.2 0.6-5.9 3.9-11.4l5.2 2.7q-2.9 5.2-3.4 9.5-0.4 3.3 0.9 5.2 1.2 1.8 3.5 2.1 1.6 0.2 2.8-0.4 1.3-0.5 2.5-2 1.1-1.4 3.3-5.2 2.4-4.3 4.3-6.3 1.8-1.9 4-2.6 2.2-0.8 5-0.5z"/><path class="b" d="m93.8 183l5.5-14.2 19.4 7.6q-0.3 3.9-1 7.3-0.8 3.4-2.3 7.1-3.4 8.8-10.4 11.5-7.1 2.7-16.5-1-9.3-3.6-12.5-11-3.2-7.5 0.5-16.8 2.4-6.1 6.8-10.6l4.4 4.3q-4 3.8-5.9 8.5-2.4 6.2 0.1 11.3 2.5 5.1 9.2 7.7 7.1 2.8 12 1 5-1.8 7.3-7.9 1.2-3 1.8-6.8l-9.9-3.9-3.1 8z"/><path class="b" d="m139.7 149.3l-13.8 18.9-33.5-24.4 13.8-18.9 4.7 3.4-9.9 13.4 9.1 6.7 9.2-12.6 4.6 3.3-9.2 12.6 10.5 7.7 9.8-13.5z"/><path class="b" d="m166.1 125.5l-22.5 19.2-3-3.6-4.2-37-15.5 13.2-3.8-4.4 21.7-18.6 3.1 3.7 4.1 37 16.4-14z"/><path class="b" d="m193.9 110.6l-20.8 10.8-19-36.8 20.8-10.8 2.6 5.1-14.8 7.7 5.2 10 13.8-7.2 2.6 5.1-13.8 7.1 5.9 11.6 14.8-7.7z"/><path class="b" d="m203.5 107.6l-12-39.6 6.4-2 12.1 39.6z"/><path class="b" d="m235.4 64.6q-5.8 0.6-8.8 5-2.9 4.5-2.1 11.7 0.8 7.6 4.4 11.1 3.6 3.6 9.6 3 2.6-0.3 5-1.1 2.4-0.7 5-1.8l0.6 5.8q-4.7 2.3-10.8 2.9-9.1 0.9-14.5-4-5.4-5-6.4-15.2-0.7-6.4 1.2-11.5 1.8-5.1 6-8.1 4.2-3 10.2-3.6 6.3-0.7 12 1.4l-1.9 5.9q-2.2-0.8-4.6-1.3-2.4-0.5-4.9-0.2z"/><path class="b" d="m290.6 105.4l-6.7-1.2 3.3-18.3-18.8-3.4-3.3 18.4-6.7-1.2 7.4-40.8 6.6 1.2-3 16.7 18.8 3.3 3-16.6 6.7 1.2z"/><path class="b" d="m331.6 124.9l-7.4-3.8-2.7-38.7-0.2-0.1-0.8 1.7q-2 4.8-4.1 8.7l-10 19-5.4-2.8 19.2-36.7 7.3 3.8 2.7 38.5 0.2 0.1q0.2-0.6 2-4.3 1.7-3.7 2.8-5.7l10.1-19.3 5.5 2.9z"/><path class="b" d="m357.3 148.2l-17.1-16.1 28.4-30.2 17.1 16.1-4 4.1-12.1-11.3-7.7 8.2 11.4 10.7-3.9 4.1-11.4-10.7-8.9 9.5 12.2 11.4z"/><path class="b" d="m371.3 167.6l-3.7-5.7 29.6-19.7-6.7-10.1 4.8-3.2 17.2 25.9-4.8 3.2-6.8-10.2z"/><path class="b" d="m383.2 181.9q1.9-0.8 3.4-0.3 1.4 0.6 2.2 2.4 0.8 1.9 0.2 3.4-0.6 1.4-2.4 2.2-1.9 0.8-3.4 0.3-1.5-0.5-2.3-2.4-0.8-1.9-0.2-3.3 0.6-1.5 2.5-2.3z"/><path fill-rule="evenodd" class="b" d="m415.2 232.2q-10 2-16.5-1.9-6.4-3.9-8.2-13-1.8-9.2 2.7-15.2 4.4-6 14.5-8 10.1-1.9 16.4 2 6.4 3.9 8.2 13.1 1.8 9-2.7 15-4.5 6.1-14.4 8zm-6.1-31q-7.6 1.5-10.8 5.3-3.3 3.8-2.1 9.7 1.1 6 5.5 8.2 4.5 2.3 12.1 0.8 7.4-1.5 10.7-5.2 3.3-3.8 2.1-9.7-1.2-6-5.6-8.3-4.5-2.2-11.9-0.8z"/><path fill-rule="evenodd" class="b" d="m410.2 253.7l-16.5-1.5 0.7-6.8 41.2 3.8-1.1 11.7q-0.7 8-4.1 11.5-3.3 3.6-9.4 3-7.7-0.7-10.2-9l-19.3 10 0.7-7.7 17.4-8.3zm5.6 0.5l-0.5 4.6q-0.4 4.8 1.1 7 1.6 2.3 5 2.6 3.5 0.4 5.3-1.8 1.7-2.1 2.1-6.7l0.5-4.5z"/><path class="b" d="m404.6 306.3l-5.5 14.3-19.4-7.5q0.2-3.9 0.9-7.3 0.8-3.4 2.2-7.2 3.4-8.7 10.5-11.5 7-2.7 16.5 0.9 9.3 3.6 12.5 11 3.2 7.4-0.4 16.8-2.4 6.1-6.8 10.6l-4.4-4.3q4-3.8 5.8-8.5 2.4-6.2-0.1-11.3-2.5-5.1-9.2-7.7-7.1-2.7-12.1-0.9-4.9 1.8-7.2 7.9-1.2 3-1.8 6.8l10 3.9 3-8.1z"/><path class="b" d="m144.3 384.9l-15-7.7-14.9 7.9 2.7-16.7-12.2-11.7 16.8-2.6 7.4-15.2 7.6 15.1 16.7 2.4-12 11.9z"/><path class="b" d="m201.4 418.3l-15-7.8-14.9 8 2.7-16.7-12.2-11.8 16.8-2.5 7.4-15.2 7.6 15.1 16.7 2.3-12 11.9z"/><path class="b" d="m329.8 417.5l-15-7.8-15 8 2.8-16.7-12.2-11.8 16.7-2.5 7.4-15.2 7.6 15.1 16.8 2.4-12.1 11.8z"/><path class="b" d="m383.4 386.8l-15.1-7.8-14.9 8 2.7-16.8-12.1-11.7 16.7-2.5 7.4-15.3 7.6 15.2 16.8 2.3-12.1 11.9z"/><path class="c" d="m170.1 262.7c-3.2-3.7-3.3-9.7-0.2-13.6l11.1-13.7c3.1-3.9 8.2-3.9 11.4-0.2l35.9 41.5 73.9-91.5c3.1-3.8 8.2-3.8 11.4-0.1l11.6 13.4c3.2 3.7 3.3 9.8 0.2 13.6l-90.6 112.1c-3.1 3.8-8.2 3.9-11.4 0.2z"/></g></svg>