<svg version="1.2" xmlns="http://www.w3.org/2000/svg" viewBox="0 0 26 26" width="26" height="26"><defs><clipPath clipPathUnits="userSpaceOnUse" id="cp1"><path d="m-1232-9947h1920v10253h-1920z"/></clipPath></defs><style>.a{fill:#ffcc07}</style><g clip-path="url(#cp1)"><path class="a" d="m24.9 20.2c-1-0.9-3.2-2.3-4.3-2.8-1.3-0.7-1.8-0.6-2.7 0-0.8 0.6-1.3 1.1-2.2 0.9-0.8-0.2-2.6-1.5-4.2-3.2-1.7-1.7-3-3.4-3.2-4.3-0.2-0.8 0.3-1.3 0.9-2.1 0.6-0.9 0.6-1.4 0-2.7-0.5-1.1-1.9-3.4-2.9-4.3-0.9-0.9-1.1-0.7-1.6-0.5 0 0-0.8 0.3-1.6 0.8-0.9 0.6-1.4 1.1-1.8 1.9-0.4 0.8-0.8 2.3 1.4 6.1 1.7 3.1 3.4 5.4 5.9 7.9q0 0 0 0.1 0-0.1 0 0c2.6 2.5 4.9 4.2 8 5.9 3.8 2.2 5.3 1.8 6.1 1.4 0.8-0.4 1.3-0.9 1.9-1.9 0.5-0.7 0.8-1.5 0.8-1.5 0.2-0.5 0.4-0.7-0.5-1.7z"/></g></svg>