<?xml version="1.0" standalone="no"?><!-- Generator: Gravit.io --><svg xmlns="http://www.w3.org/2000/svg" xmlns:xlink="http://www.w3.org/1999/xlink" style="isolation:isolate" viewBox="372.5 459.5 537.916 109.75" width="537.916" height="109.75"><defs><clipPath id="_clipPath_ti7KjnUf96CIFOuCjmmqqlHXQ35MsapD"><rect x="372.5" y="459.5" width="537.916" height="109.75"/></clipPath></defs><g clip-path="url(#_clipPath_ti7KjnUf96CIFOuCjmmqqlHXQ35MsapD)">
<path d=" M 541.801 502.981 L 544.909 488.833 L 573.205 488.833 L 565.458 525.711 L 565.458 525.711 Q 553.861 529.468 541.291 529.468 L 541.291 529.468 L 541.291 529.468 Q 529.184 529.468 522.504 522.417 L 522.504 522.417 L 522.504 522.417 Q 515.824 515.367 515.824 502.425 L 515.824 502.425 L 515.824 502.425 Q 515.824 490.04 520.927 480.066 L 520.927 480.066 L 520.927 480.066 Q 526.029 470.093 534.912 464.875 L 534.912 464.875 L 534.912 464.875 Q 543.795 459.656 555.578 459.656 L 555.578 459.656 L 555.578 459.656 Q 567.917 459.656 576.359 464.62 L 576.359 464.62 L 569.54 478.953 L 569.54 478.953 Q 562.443 474.778 555.346 474.778 L 555.346 474.778 L 555.346 474.778 Q 549.223 474.778 544.514 478.141 L 544.514 478.141 L 544.514 478.141 Q 539.806 481.504 537 488.091 L 537 488.091 L 537 488.091 Q 534.193 494.678 534.193 502.146 L 534.193 502.146 L 534.193 502.146 Q 534.193 514.393 543.888 514.393 L 543.888 514.393 L 543.888 514.393 Q 546.811 514.393 550.058 513.743 L 550.058 513.743 L 552.423 502.981 L 541.801 502.981 Z  M 615.282 513.604 L 612.127 528.541 L 571.864 528.541 L 586.197 460.723 L 626.461 460.723 L 623.446 475.428 L 601.319 475.428 L 599.139 486.097 L 619.735 486.097 L 616.395 500.801 L 595.799 500.801 L 593.155 513.604 L 615.282 513.604 Z  M 692.242 460.723 L 677.908 528.541 L 656.802 528.541 L 643.396 480.855 L 643.025 480.855 L 643.025 480.855 Q 641.68 494.354 640.381 500.245 L 640.381 500.245 L 634.397 528.541 L 618.255 528.541 L 632.588 460.723 L 653.694 460.723 L 666.961 506.321 L 667.378 506.321 L 667.378 506.321 Q 668.724 495.374 670.022 489.112 L 670.022 489.112 L 676.099 460.723 L 692.242 460.723 Z  M 729.727 513.604 L 726.572 528.541 L 686.309 528.541 L 700.642 460.723 L 740.906 460.723 L 737.891 475.428 L 715.764 475.428 L 713.584 486.097 L 734.18 486.097 L 730.84 500.801 L 710.244 500.801 L 707.6 513.604 L 729.727 513.604 Z  M 759.465 503.863 L 756.079 503.863 L 750.837 528.541 L 732.7 528.541 L 747.033 460.723 L 764.985 460.723 L 764.985 460.723 Q 776.674 460.723 782.89 465.362 L 782.89 465.362 L 782.89 465.362 Q 789.106 470 789.106 479.324 L 789.106 479.324 L 789.106 479.324 Q 789.106 486.561 785.813 491.941 L 785.813 491.941 L 785.813 491.941 Q 782.519 497.322 776.025 500.152 L 776.025 500.152 L 786.416 524.087 L 788.271 528.541 L 768.51 528.541 L 759.465 503.863 Z  M 762.248 474.593 L 759.001 490.086 L 761.367 490.086 L 761.367 490.086 Q 765.773 490.086 768.371 487.558 L 768.371 487.558 L 768.371 487.558 Q 770.969 485.03 770.969 480.484 L 770.969 480.484 L 770.969 480.484 Q 770.969 477.608 769.368 476.1 L 769.368 476.1 L 769.368 476.1 Q 767.768 474.593 764.707 474.593 L 764.707 474.593 L 762.248 474.593 Z  M 816.71 502.981 L 819.818 488.833 L 848.114 488.833 L 840.368 525.711 L 840.368 525.711 Q 828.771 529.468 816.2 529.468 L 816.2 529.468 L 816.2 529.468 Q 804.093 529.468 797.414 522.417 L 797.414 522.417 L 797.414 522.417 Q 790.734 515.367 790.734 502.425 L 790.734 502.425 L 790.734 502.425 Q 790.734 490.04 795.836 480.066 L 795.836 480.066 L 795.836 480.066 Q 800.939 470.093 809.822 464.875 L 809.822 464.875 L 809.822 464.875 Q 818.705 459.656 830.487 459.656 L 830.487 459.656 L 830.487 459.656 Q 842.826 459.656 851.269 464.62 L 851.269 464.62 L 844.45 478.953 L 844.45 478.953 Q 837.353 474.778 830.255 474.778 L 830.255 474.778 L 830.255 474.778 Q 824.132 474.778 819.424 478.141 L 819.424 478.141 L 819.424 478.141 Q 814.716 481.504 811.909 488.091 L 811.909 488.091 L 811.909 488.091 Q 809.103 494.678 809.103 502.146 L 809.103 502.146 L 809.103 502.146 Q 809.103 514.393 818.798 514.393 L 818.798 514.393 L 818.798 514.393 Q 821.72 514.393 824.967 513.743 L 824.967 513.743 L 827.333 502.981 L 816.71 502.981 Z  M 871.544 460.723 L 875.719 485.865 L 890.191 460.723 L 910.416 460.723 L 882.027 502.239 L 876.415 528.541 L 858.277 528.541 L 863.844 502.239 L 852.85 460.723 L 871.544 460.723 Z " fill-rule="evenodd" fill="rgb(255,255,255)"/><path d=" M 784.45 568.24 L 784.45 568.24 Q 782.74 568.24 780.79 568.03 L 780.79 568.03 L 780.79 568.03 Q 778.84 567.82 777.49 567.49 L 777.49 567.49 L 777.49 563.98 L 777.49 563.98 Q 780.16 564.25 784.24 564.25 L 784.24 564.25 L 784.24 564.25 Q 786.07 564.25 787 563.755 L 787 563.755 L 787 563.755 Q 787.93 563.26 787.93 562 L 787.93 562 L 787.93 561.19 L 787.93 561.19 Q 787.93 560.2 787.345 559.675 L 787.345 559.675 L 787.345 559.675 Q 786.76 559.15 785.68 559.15 L 785.68 559.15 L 783.79 559.15 L 783.79 559.15 Q 780.49 559.15 778.855 557.71 L 778.855 557.71 L 778.855 557.71 Q 777.22 556.27 777.22 553 L 777.22 553 L 777.22 551.92 L 777.22 551.92 Q 777.22 545.68 784.39 545.68 L 784.39 545.68 L 784.39 545.68 Q 786.07 545.68 787.87 545.905 L 787.87 545.905 L 787.87 545.905 Q 789.67 546.13 791.11 546.43 L 791.11 546.43 L 791.11 549.94 L 791.11 549.94 Q 787 549.67 784.9 549.67 L 784.9 549.67 L 784.9 549.67 Q 783.19 549.67 782.32 550.195 L 782.32 550.195 L 782.32 550.195 Q 781.45 550.72 781.45 552.13 L 781.45 552.13 L 781.45 552.73 L 781.45 552.73 Q 781.45 553.87 782.095 554.395 L 782.095 554.395 L 782.095 554.395 Q 782.74 554.92 784.06 554.92 L 784.06 554.92 L 786.25 554.92 L 786.25 554.92 Q 789.13 554.92 790.645 556.495 L 790.645 556.495 L 790.645 556.495 Q 792.16 558.07 792.16 560.62 L 792.16 560.62 L 792.16 561.88 L 792.16 561.88 Q 792.16 564.4 791.23 565.795 L 791.23 565.795 L 791.23 565.795 Q 790.3 567.19 788.62 567.715 L 788.62 567.715 L 788.62 567.715 Q 786.94 568.24 784.45 568.24 L 784.45 568.24 L 784.45 568.24 Z  M 803.8 568.21 L 803.8 568.21 Q 799.63 568.21 797.38 566.635 L 797.38 566.635 L 797.38 566.635 Q 795.13 565.06 795.13 560.92 L 795.13 560.92 L 795.13 545.86 L 799.57 545.86 L 799.57 560.89 L 799.57 560.89 Q 799.57 562.66 800.635 563.44 L 800.635 563.44 L 800.635 563.44 Q 801.7 564.22 803.8 564.22 L 803.8 564.22 L 803.8 564.22 Q 805.9 564.22 806.95 563.44 L 806.95 563.44 L 806.95 563.44 Q 808 562.66 808 560.89 L 808 560.89 L 808 545.86 L 812.47 545.86 L 812.47 560.92 L 812.47 560.92 Q 812.47 565.06 810.205 566.635 L 810.205 566.635 L 810.205 566.635 Q 807.94 568.21 803.8 568.21 L 803.8 568.21 L 803.8 568.21 Z  M 816.16 568.06 L 816.16 545.86 L 819.73 545.86 L 829.03 560.5 L 829.03 545.86 L 833.47 545.86 L 833.47 568.06 L 829.9 568.06 L 820.63 553.42 L 820.63 568.06 L 816.16 568.06 L 816.16 568.06 Z  M 718.06 568.06 L 718.06 549.85 L 711.97 549.85 L 711.97 545.86 L 728.62 545.86 L 728.62 549.85 L 722.5 549.85 L 722.5 568.06 L 718.06 568.06 L 718.06 568.06 Z  M 731.02 568.06 L 731.02 545.86 L 735.46 545.86 L 735.46 555.1 L 743.83 555.1 L 743.83 545.86 L 748.3 545.86 L 748.3 568.06 L 743.83 568.06 L 743.83 559.09 L 735.46 559.09 L 735.46 568.06 L 731.02 568.06 L 731.02 568.06 Z  M 757.51 568.21 L 757.51 568.21 Q 755.35 568.21 753.73 567.25 L 753.73 567.25 L 753.73 567.25 Q 752.11 566.29 752.11 563.32 L 752.11 563.32 L 752.11 550.93 L 752.11 550.93 Q 752.11 548.23 753.595 547.045 L 753.595 547.045 L 753.595 547.045 Q 755.08 545.86 757.18 545.86 L 757.18 545.86 L 757.18 545.86 Q 761.77 545.86 766.78 546.25 L 766.78 546.25 L 766.78 549.97 L 758.5 549.97 L 758.5 549.97 Q 756.55 549.97 756.55 551.8 L 756.55 551.8 L 756.55 555.01 L 765.34 555.25 L 765.34 558.76 L 756.55 559 L 756.55 562.06 L 756.55 562.06 Q 756.55 564.04 758.41 564.04 L 758.41 564.04 L 766.78 564.04 L 766.78 567.76 L 766.78 567.76 Q 762.79 568.21 757.51 568.21 L 757.51 568.21 L 757.51 568.21 Z  M 668.02 568.06 L 668.02 545.86 L 676.75 545.86 L 676.75 545.86 Q 683.08 545.86 683.08 551.68 L 683.08 551.68 L 683.08 551.68 Q 683.08 553.66 682.27 554.905 L 682.27 554.905 L 682.27 554.905 Q 681.46 556.15 679.99 556.54 L 679.99 556.54 L 679.99 556.54 Q 681.61 556.93 682.705 558.28 L 682.705 558.28 L 682.705 558.28 Q 683.8 559.63 683.8 561.94 L 683.8 561.94 L 683.8 561.94 Q 683.8 565.24 682.135 566.65 L 682.135 566.65 L 682.135 566.65 Q 680.47 568.06 677.14 568.06 L 677.14 568.06 L 668.02 568.06 L 668.02 568.06 Z  M 672.46 555.01 L 676.78 555.01 L 676.78 555.01 Q 677.74 555.01 678.295 554.29 L 678.295 554.29 L 678.295 554.29 Q 678.85 553.57 678.85 552.37 L 678.85 552.37 L 678.85 552.37 Q 678.85 551.05 678.265 550.45 L 678.265 550.45 L 678.265 550.45 Q 677.68 549.85 676.72 549.85 L 676.72 549.85 L 672.46 549.85 L 672.46 555.01 L 672.46 555.01 Z  M 672.46 564.07 L 677.02 564.07 L 677.02 564.07 Q 679.57 564.07 679.57 561.16 L 679.57 561.16 L 679.57 561.16 Q 679.57 559.9 678.865 559.165 L 678.865 559.165 L 678.865 559.165 Q 678.16 558.43 677.02 558.43 L 677.02 558.43 L 672.46 558.43 L 672.46 564.07 L 672.46 564.07 Z  M 692.11 568.06 L 692.11 561.34 L 685.42 545.86 L 690.04 545.86 L 694.42 556.81 L 698.77 545.86 L 703.21 545.86 L 696.55 561.34 L 696.55 568.06 L 692.11 568.06 L 692.11 568.06 Z  M 515.92 568.06 L 515.92 545.86 L 525.28 545.86 L 525.28 545.86 Q 528.07 545.86 529.87 547.42 L 529.87 547.42 L 529.87 547.42 Q 531.67 548.98 531.67 553.48 L 531.67 553.48 L 531.67 553.48 Q 531.67 561.28 525.46 561.28 L 525.46 561.28 L 525.46 561.28 Q 524.5 561.28 522.97 561.115 L 522.97 561.115 L 522.97 561.115 Q 521.44 560.95 520.36 560.8 L 520.36 560.8 L 520.36 568.06 L 515.92 568.06 L 515.92 568.06 Z  M 520.36 557.29 L 524.77 557.29 L 524.77 557.29 Q 525.97 557.29 526.585 556.39 L 526.585 556.39 L 526.585 556.39 Q 527.2 555.49 527.2 553.51 L 527.2 553.51 L 527.2 553.51 Q 527.2 549.85 524.86 549.85 L 524.86 549.85 L 520.36 549.85 L 520.36 557.29 L 520.36 557.29 Z  M 543.13 568.24 L 543.13 568.24 Q 539.86 568.24 537.91 567.37 L 537.91 567.37 L 537.91 567.37 Q 535.96 566.5 534.97 564.07 L 534.97 564.07 L 534.97 564.07 Q 533.98 561.64 533.98 556.99 L 533.98 556.99 L 533.98 556.99 Q 533.98 552.34 534.985 549.895 L 534.985 549.895 L 534.985 549.895 Q 535.99 547.45 537.94 546.55 L 537.94 546.55 L 537.94 546.55 Q 539.89 545.65 543.13 545.65 L 543.13 545.65 L 543.13 545.65 Q 546.4 545.65 548.335 546.55 L 548.335 546.55 L 548.335 546.55 Q 550.27 547.45 551.26 549.895 L 551.26 549.895 L 551.26 549.895 Q 552.25 552.34 552.25 556.99 L 552.25 556.99 L 552.25 556.99 Q 552.25 561.64 551.26 564.07 L 551.26 564.07 L 551.26 564.07 Q 550.27 566.5 548.335 567.37 L 548.335 567.37 L 548.335 567.37 Q 546.4 568.24 543.13 568.24 L 543.13 568.24 L 543.13 568.24 Z  M 543.13 564.25 L 543.13 564.25 Q 545.02 564.25 545.995 563.695 L 545.995 563.695 L 545.995 563.695 Q 546.97 563.14 547.39 561.595 L 547.39 561.595 L 547.39 561.595 Q 547.81 560.05 547.81 556.99 L 547.81 556.99 L 547.81 556.99 Q 547.81 553.81 547.39 552.265 L 547.39 552.265 L 547.39 552.265 Q 546.97 550.72 545.995 550.18 L 545.995 550.18 L 545.995 550.18 Q 545.02 549.64 543.13 549.64 L 543.13 549.64 L 543.13 549.64 Q 541.27 549.64 540.295 550.18 L 540.295 550.18 L 540.295 550.18 Q 539.32 550.72 538.87 552.28 L 538.87 552.28 L 538.87 552.28 Q 538.42 553.84 538.42 556.99 L 538.42 556.99 L 538.42 556.99 Q 538.42 560.08 538.84 561.61 L 538.84 561.61 L 538.84 561.61 Q 539.26 563.14 540.235 563.695 L 540.235 563.695 L 540.235 563.695 Q 541.21 564.25 543.13 564.25 L 543.13 564.25 L 543.13 564.25 Z  M 559.42 568.06 L 554.11 545.86 L 558.7 545.86 L 562.27 561.52 L 566.44 545.86 L 570.52 545.86 L 574.66 561.52 L 578.23 545.86 L 582.82 545.86 L 577.51 568.06 L 572.98 568.06 L 568.48 552.4 L 563.95 568.06 L 559.42 568.06 L 559.42 568.06 Z  M 590.65 568.21 L 590.65 568.21 Q 588.49 568.21 586.87 567.25 L 586.87 567.25 L 586.87 567.25 Q 585.25 566.29 585.25 563.32 L 585.25 563.32 L 585.25 550.93 L 585.25 550.93 Q 585.25 548.23 586.735 547.045 L 586.735 547.045 L 586.735 547.045 Q 588.22 545.86 590.32 545.86 L 590.32 545.86 L 590.32 545.86 Q 594.91 545.86 599.92 546.25 L 599.92 546.25 L 599.92 549.97 L 591.64 549.97 L 591.64 549.97 Q 589.69 549.97 589.69 551.8 L 589.69 551.8 L 589.69 555.01 L 598.48 555.25 L 598.48 558.76 L 589.69 559 L 589.69 562.06 L 589.69 562.06 Q 589.69 564.04 591.55 564.04 L 591.55 564.04 L 599.92 564.04 L 599.92 567.76 L 599.92 567.76 Q 595.93 568.21 590.65 568.21 L 590.65 568.21 L 590.65 568.21 Z  M 603.16 568.06 L 603.16 545.86 L 612.34 545.86 L 612.34 545.86 Q 615.28 545.86 616.975 547.435 L 616.975 547.435 L 616.975 547.435 Q 618.67 549.01 618.67 552.97 L 618.67 552.97 L 618.67 552.97 Q 618.67 555.76 617.725 557.11 L 617.725 557.11 L 617.725 557.11 Q 616.78 558.46 615.16 559.15 L 615.16 559.15 L 619.3 568.06 L 614.77 568.06 L 611.2 559.84 L 611.2 559.84 Q 609.76 559.84 607.6 559.78 L 607.6 559.78 L 607.6 568.06 L 603.16 568.06 L 603.16 568.06 Z  M 607.6 556.27 L 611.56 556.27 L 611.56 556.27 Q 612.85 556.27 613.54 555.535 L 613.54 555.535 L 613.54 555.535 Q 614.23 554.8 614.23 552.97 L 614.23 552.97 L 614.23 552.97 Q 614.23 551.2 613.54 550.525 L 613.54 550.525 L 613.54 550.525 Q 612.85 549.85 611.56 549.85 L 611.56 549.85 L 607.6 549.85 L 607.6 556.27 L 607.6 556.27 Z  M 627.37 568.21 L 627.37 568.21 Q 625.21 568.21 623.59 567.25 L 623.59 567.25 L 623.59 567.25 Q 621.97 566.29 621.97 563.32 L 621.97 563.32 L 621.97 550.93 L 621.97 550.93 Q 621.97 548.23 623.455 547.045 L 623.455 547.045 L 623.455 547.045 Q 624.94 545.86 627.04 545.86 L 627.04 545.86 L 627.04 545.86 Q 631.63 545.86 636.64 546.25 L 636.64 546.25 L 636.64 549.97 L 628.36 549.97 L 628.36 549.97 Q 626.41 549.97 626.41 551.8 L 626.41 551.8 L 626.41 555.01 L 635.2 555.25 L 635.2 558.76 L 626.41 559 L 626.41 562.06 L 626.41 562.06 Q 626.41 564.04 628.27 564.04 L 628.27 564.04 L 636.64 564.04 L 636.64 567.76 L 636.64 567.76 Q 632.65 568.21 627.37 568.21 L 627.37 568.21 L 627.37 568.21 Z  M 639.88 568.06 L 639.88 545.86 L 649.27 545.86 L 649.27 545.86 Q 653.53 545.86 655.27 548.74 L 655.27 548.74 L 655.27 548.74 Q 657.01 551.62 657.01 556.96 L 657.01 556.96 L 657.01 556.96 Q 657.01 562.57 655.09 565.315 L 655.09 565.315 L 655.09 565.315 Q 653.17 568.06 649.27 568.06 L 649.27 568.06 L 639.88 568.06 L 639.88 568.06 Z  M 644.32 564.07 L 648.82 564.07 L 648.82 564.07 Q 650.83 564.07 651.7 562.315 L 651.7 562.315 L 651.7 562.315 Q 652.57 560.56 652.57 556.96 L 652.57 556.96 L 652.57 556.96 Q 652.57 554.14 652.165 552.595 L 652.165 552.595 L 652.165 552.595 Q 651.76 551.05 650.95 550.45 L 650.95 550.45 L 650.95 550.45 Q 650.14 549.85 648.82 549.85 L 648.82 549.85 L 644.32 549.85 L 644.32 564.07 L 644.32 564.07 Z " fill-rule="evenodd" fill="rgb(255,205,5)"/><path d=" M 514.5 459.5 L 408 518.5 L 437.25 518.25 L 372.5 569.25 L 494.25 509.5 L 462.75 509.75 L 514.5 459.5 Z " fill="rgb(255,205,5)"/></g></svg>