<svg xmlns="http://www.w3.org/2000/svg" xmlns:xlink="http://www.w3.org/1999/xlink" width="57" zoomAndPan="magnify" viewBox="0 0 42.75 30.000001" height="40" preserveAspectRatio="xMidYMid meet" version="1.0"><defs><filter x="0%" y="0%" width="100%" height="100%" id="f609c251ac"><feColorMatrix values="0 0 0 0 1 0 0 0 0 1 0 0 0 0 1 0 0 0 1 0" color-interpolation-filters="sRGB"/></filter><clipPath id="1105c7af14"><path d="M 0.570312 2.175781 L 41.933594 2.175781 L 41.933594 26.855469 L 0.570312 26.855469 Z M 0.570312 2.175781 " clip-rule="nonzero"/></clipPath><mask id="5fd270b7f1"><g filter="url(#f609c251ac)"><rect x="-4.275" width="51.3" fill="#000000" y="-3" height="36.000001" fill-opacity="0.5"/></g></mask><clipPath id="1c9e6be36f"><path d="M 0.570312 0.175781 L 41.933594 0.175781 L 41.933594 24.855469 L 0.570312 24.855469 Z M 0.570312 0.175781 " clip-rule="nonzero"/></clipPath><clipPath id="ea82832c62"><rect x="0" width="42" y="0" height="25"/></clipPath></defs><g clip-path="url(#1105c7af14)"><g mask="url(#5fd270b7f1)"><g transform="matrix(1, 0, 0, 1, 0, 2)"><g clip-path="url(#ea82832c62)"><path stroke-linecap="round" transform="matrix(-0.725806, 0, 0, -0.725806, 41.935093, 24.85484)" fill="none" stroke-linejoin="miter" d="M 54.198246 17.000697 L 4.00085 17.000697 " stroke="#ffffff" stroke-width="3" stroke-opacity="1" stroke-miterlimit="100"/><g clip-path="url(#1c9e6be36f)"><path stroke-linecap="round" transform="matrix(-0.725806, 0, 0, -0.725806, 41.935093, 24.85484)" fill="none" stroke-linejoin="miter" d="M 16.998246 29.998093 L 4.00085 17.000697 L 16.998246 3.997919 " stroke="#ffffff" stroke-width="3" stroke-opacity="1" stroke-miterlimit="100"/></g></g></g></g></g></svg>