<svg xmlns="http://www.w3.org/2000/svg" xmlns:xlink="http://www.w3.org/1999/xlink" width="57" zoomAndPan="magnify" viewBox="0 0 42.75 30.000001" height="40" preserveAspectRatio="xMidYMid meet" version="1.0"><defs><filter x="0%" y="0%" width="100%" height="100%" id="b6477ad3a9"><feColorMatrix values="0 0 0 0 1 0 0 0 0 1 0 0 0 0 1 0 0 0 1 0" color-interpolation-filters="sRGB"/></filter><clipPath id="6ce3f1c656"><path d="M 0.570312 2.175781 L 41.941406 2.175781 L 41.941406 26.855469 L 0.570312 26.855469 Z M 0.570312 2.175781 " clip-rule="nonzero"/></clipPath><mask id="c9cdf4348c"><g filter="url(#b6477ad3a9)"><rect x="-4.275" width="51.3" fill="#000000" y="-3" height="36.000001" fill-opacity="0.5"/></g></mask><clipPath id="41a3e74f38"><path d="M 0.570312 0.175781 L 41.941406 0.175781 L 41.941406 24.855469 L 0.570312 24.855469 Z M 0.570312 0.175781 " clip-rule="nonzero"/></clipPath><clipPath id="d76477aab1"><rect x="0" width="42" y="0" height="25"/></clipPath><mask id="37638a2e22"><g filter="url(#b6477ad3a9)"><rect x="-4.275" width="51.3" fill="#000000" y="-3" height="36.000001" fill-opacity="0.5"/></g></mask><clipPath id="e7b526435b"><path d="M 0.570312 0.175781 L 41.941406 0.175781 L 41.941406 24.855469 L 0.570312 24.855469 Z M 0.570312 0.175781 " clip-rule="nonzero"/></clipPath><clipPath id="89ab1afd07"><rect x="0" width="42" y="0" height="25"/></clipPath></defs><g clip-path="url(#6ce3f1c656)"><g mask="url(#c9cdf4348c)"><g transform="matrix(1, 0, 0, 1, 0, 2)"><g clip-path="url(#d76477aab1)"><path stroke-linecap="round" transform="matrix(0.725806, 0, 0, 0.725806, 0.568548, 0.177421)" fill="none" stroke-linejoin="miter" d="M 54.198613 16.999303 L 4.001216 16.999303 " stroke="#ffffff" stroke-width="3" stroke-opacity="1" stroke-miterlimit="100"/><g clip-path="url(#41a3e74f38)"><path stroke-linecap="round" transform="matrix(0.725806, 0, 0, 0.725806, 0.568548, 0.177421)" fill="none" stroke-linejoin="miter" d="M 16.998612 30.002081 L 4.001216 16.999303 L 16.998612 4.001907 " stroke="#ffffff" stroke-width="3" stroke-opacity="1" stroke-miterlimit="100"/></g></g></g></g><g mask="url(#37638a2e22)"><g transform="matrix(1, 0, 0, 1, 0, 2)"><g clip-path="url(#89ab1afd07)"><path stroke-linecap="round" transform="matrix(0.725806, 0, 0, 0.725806, 0.568548, 0.177421)" fill="none" stroke-linejoin="miter" d="M 54.198613 16.999303 L 4.001216 16.999303 " stroke="#ffffff" stroke-width="3" stroke-opacity="1" stroke-miterlimit="100"/><g clip-path="url(#e7b526435b)"><path stroke-linecap="round" transform="matrix(0.725806, 0, 0, 0.725806, 0.568548, 0.177421)" fill="none" stroke-linejoin="miter" d="M 16.998612 30.002081 L 4.001216 16.999303 L 16.998612 4.001907 " stroke="#ffffff" stroke-width="3" stroke-opacity="1" stroke-miterlimit="100"/></g></g></g></g></g></svg>