<svg version="1.2" xmlns="http://www.w3.org/2000/svg" viewBox="0 0 352 61" width="352" height="61"><defs><clipPath clipPathUnits="userSpaceOnUse" id="cp1"><path d="m-784-9394h1920v10253h-1920z"/></clipPath></defs><style>.a{fill:#ffcc07}.b{opacity:.3;fill:#ffcc07}</style><g clip-path="url(#cp1)"><path class="a" d="m31.5 0l8.7 21.2 22.8 1.7-17.5 14.8 5.5 22.3-19.5-12.1-19.5 12.1 5.5-22.3-17.5-14.8 22.8-1.7z"/><path class="a" d="m104 0l8.8 21.2 23.2 1.7-17.8 14.8 5.6 22.3-19.8-12.1-19.8 12.1 5.6-22.3-17.8-14.8 23.2-1.7z"/><path class="a" d="m176 0l8.8 21.2 23.2 1.7-17.8 14.8 5.6 22.3-19.8-12.1-19.8 12.1 5.6-22.3-17.8-14.8 23.2-1.7z"/><path class="a" d="m248 0l8.8 21.2 23.2 1.7-17.8 14.8 5.6 22.3-19.8-12.1-19.8 12.1 5.6-22.3-17.8-14.8 23.2-1.7z"/><path class="b" d="m320.5 0l8.7 21.2 22.8 1.7-17.5 14.8 5.5 22.3-19.5-12.1-19.5 12.1 5.5-22.3-17.5-14.8 22.8-1.7z"/><path class="a" d="m305.3 57c-0.9 0-1.8-0.4-2.3-1.2-0.6-0.7-0.8-1.6-0.6-2.5l3.3-13.5c0.3-1.1-0.1-2.3-1-3l-10.6-9c-0.9-0.8-1.3-2-0.9-3.2 0.4-1.2 1.4-2 2.7-2.1l13.8-1c1.1-0.1 2.1-0.8 2.6-1.8l5.2-12.9c0.5-1.1 1.5-1.9 2.8-1.9v43.9q-0.9 0-1.6 0.4l-11.8 7.4q-0.7 0.4-1.6 0.4z"/></g></svg>